# xmcd
#
# Track frame offsets: 
#        150
#        10763
#        26527
#        37013
#        45689
#        56405
#        69286
#        86631
#        97625
#        111046
#        119923
#        132972
#        151437
#        160913
#
# Disc length: 2280 seconds
#
# Revision: 2
# Processed by: cddbd v1.5.2PL0 Copyright (c) Steve Scherf et al.
# Submitted via: ExactAudioCopy v1.3
#
DISCID=ae08e60e
DTITLE=Various Artist - Rund um e Walesee
DYEAR=1987
DGENRE=Folk
TTITLE0=Rene Wicky - Schönegg-Marsch
TTITLE1=Carlo Brunner/Alex Eugster - Börsä-Ländner
TTITLE2=Ernst Sommer/Jodlerduett Holderegger/Kühne - Spott-Liedli
TTITLE3=Anton Wicky - Alphorntrio Sahli-Marquart - Falknisblick
TTITLE4=Beni Böni, Schwyzerörgeli - Im Pöschtli zWeesä
TTITLE5=B. Rehmann/arr. Markus Sahli /Trio Beni Böni - Alphorn-Polka
TTITLE6=Foxtrott, Josef Boschi, Kapelle Böni-Böni - Frida's Liebling
TTITLE7=Carlo Brunner, Alex Eugster, Alphornduo Sahli, Kapelle Böni-Bö
TTITLE7=ni - Alphorn-Marsch
TTITLE8=Jost Ribary, Kapelle Böni-Böni - Rheinperlen-Ländler
TTITLE9=Beni Böni, Schwyzerörgeli - Walenseerundfahrt-Schottisch
TTITLE10=A. Hagen, Echo vom Walensee - z'Gersau i der Fischerstube
TTITLE11=Ernst Sommer, Jodlerduett Holderegger - Chilbiglück
TTITLE12=Markus Sahli, Alphorntrio Sahli-Marquart - Curfirste-Gruess
TTITLE13=Schottisch, Carlo Brunner, Echo vom Walensee - De Lückebüesse
TTITLE13=r
EXTD=
EXTT0=
EXTT1=
EXTT2=
EXTT3=
EXTT4=
EXTT5=
EXTT6=
EXTT7=
EXTT8=
EXTT9=
EXTT10=
EXTT11=
EXTT12=
EXTT13=
PLAYORDER=
